<svg id="Capa_9" data-name="Capa 9" xmlns="http://www.w3.org/2000/svg" viewBox="0 0 2323.9082 419.99006"><rect x="181.6712" y="123.12127" width="47.97271" height="75.67244" rx="23.98633"/><rect x="311.33803" y="123.12127" width="47.97271" height="75.67244" rx="23.98633"/><path d="M607.34037,1537.97563c-14.29222,0-21.31544-15.76521-24.76665-23.36846a10.291,10.291,0,0,1,9.35049-14.56812H622.7585a10.26714,10.26714,0,0,1,9.42731,14.39319C628.76312,1522.09129,621.74222,1537.97563,607.34037,1537.97563Z" transform="translate(-334.13965 -1290.00488)"/><path d="M396.62063,1417.65965a56.6038,56.6038,0,0,0-57.81867,51.64977l-4.44353,50.78967a56.619,56.619,0,0,0,40.81532,59.359C368.699,1529.88179,374.60861,1469.91784,396.62063,1417.65965Z" transform="translate(-334.13965 -1290.00488)"/><path d="M817.65867,1417.65965a56.60381,56.60381,0,0,1,57.81867,51.64977l4.44353,50.78967a56.619,56.619,0,0,1-40.81532,59.359C845.5803,1529.88179,839.67068,1469.91784,817.65867,1417.65965Z" transform="translate(-334.13965 -1290.00488)"/><path d="M776.54956,1382.41558c-65.837-92.53314-169.20919-92.4107-169.20919-92.4107s-103.37216-.12244-169.20919,92.4107c-61.05782,85.817-55.31716,223.40029-12.38258,268.72749,37.87436,39.98394,86.24851,58.85187,181.59177,58.85187s143.71742-18.86793,181.59176-58.85187C831.86673,1605.81587,837.60737,1468.23255,776.54956,1382.41558ZM607.54109,1673.26269a33.52068,33.52068,0,1,1,33.52069-33.52068A33.52069,33.52069,0,0,1,607.54109,1673.26269Zm113.20758-85.50784c-48.57488,13.84986-55.39945-18.46649-113.4083-18.46649s-64.83341,32.31635-113.40829,18.46649c-44.13892-12.5853-45.20476-44.65878-44.00643-87.91652,1.26655-45.74671,25.62223-89.60461,57.25412-116.01769,40.14453-33.52068,79.57648-36.3308,100.1606-36.3308s60.01607,2.81012,100.1606,36.3308c31.6319,26.41308,55.98755,70.271,57.25413,116.01769C765.9534,1543.09607,764.88756,1575.16955,720.74867,1587.75485Z" transform="translate(-334.13965 -1290.00488)"/><path d="M1187.31641,1544.61426q0,34.85449-21.0337,59.89453-22.23486,26.2456-56.48925,26.24219-12.82178,0-38.56153-.60157-25.74169-.60059-38.561-.60058-9.41822,0-28.34473.80078-18.93018.80419-28.34521.80176-5.009,0-5.00782-4.60742,0-22.03272,2.10352-66.20508,2.10279-44.16944,2.103-66.2041,0-23.23536-2.103-69.811-2.10351-46.574-2.10352-69.81055,0-4.404,5.00782-4.40722,17.82714,0,53.68506.20068,35.8557.20142,53.88574.2002,42.06664,0,67.10644,15.62451,30.44677,19.03344,30.44825,59.09375,0,13.82226-8.0127,28.7456-8.01415,14.9253-19.43066,22.53614-5.8125,3.80712-5.80957,5.00781,0,1.2019,5.80957,4.40674a62.70832,62.70832,0,0,1,24.43847,24.73877A68.19408,68.19408,0,0,1,1187.31641,1544.61426Zm-56.28955-114.98194q0-28.2451-25.23975-38.06054-15.22632-5.80737-49.8794-5.80908-33.65331,0-33.65332,5.00781,0,6.61083-.60107,19.83154-.60059,13.221-.60059,20.03174,0,4.61059.2002,14.22266.197,9.61522.20019,14.42285,0,5.8125,45.272,5.80908Q1131.02661,1465.08838,1131.02686,1429.63232Zm5.40869,112.979q0-24.438-21.83448-33.05274-13.82226-5.606-43.06836-5.60839-50.48,0-50.48,5.4082V1542.21q0,7.21143.40039,22.03516.39918,14.82714.40088,22.23535,0,2.00536,12.82032,3.00488,12.81664,1.00488,38.06006,1.002,31.64868,0,45.47216-8.21386Q1136.43212,1571.457,1136.43555,1542.61133Z" transform="translate(-334.13965 -1290.00488)"/><path d="M1402.65723,1533.59668q0,41.86963-27.44336,71.51367-28.04738,30.64746-69.50977,30.64844-41.66822,0-69.71094-30.44824-27.44677-29.44629-27.44336-71.31348,0-41.86377,27.44336-71.3125,28.24512-30.04761,69.71094-30.04736,41.26319,0,69.30957,30.04736Q1402.65821,1491.93457,1402.65723,1533.59668Zm-42.26661.40039q0-24.43653-15.02441-41.66553-15.624-18.22558-39.66211-18.22851-24.03882,0-39.86377,18.02832-15.02343,17.428-15.02344,41.86572,0,24.03809,15.22413,41.666,16.02391,18.62988,39.66308,18.62988,23.83595,0,39.66211-18.62988Q1360.39111,1558.03809,1360.39062,1533.99707Z" transform="translate(-334.13965 -1290.00488)"/><path d="M1542.47949,1594.293q0,4.40918-.80176,12.01855-1.00488,9.41895-1.20214,12.21973a15.67636,15.67636,0,0,1-.60059,4.40723q-.80274,1.40331-3.80566,2.80468-16.42823,7.812-51.68262,7.8125-46.87353,0-46.874-42.46777,0-17.02442.80078-51.18164.79833-34.1499.80175-51.18018,0-8.21192-8.21289-8.814-7.41357,0-14.623-.2002-4.207-1.00049-4.207-16.42627a98.314,98.314,0,0,1,.80175-12.21923q.60058-4.80762,6.41016-5.80909,5.00391,0,9.81543-.20068,9.21093-.39917,9.21387-8.21289,0-8.00976-.5-24.439-.50244-16.42238-.501-24.63868,0-14.62061,5.6084-14.62353,1.80322,0,37.66015,6.21,4.60548.60132,4.60743,4.40723,0,8.8169-1.30274,26.44189-1.30518,17.6294-1.30176,26.44189,0,5.81178,5.40821,5.80909h48.07715q3.40283,0,3.40527,2.40381a66.77439,66.77439,0,0,1-.70117,7.7124,66.181,66.181,0,0,0-.70117,7.9126q0,3.0044.20019,9.21435.19776,6.21167.2002,9.21484,0,3.80714-5.6084,3.80567-8.01562,0-24.23926-1.10156-16.22461-1.09865-24.23828-1.10157-1.60547,0-2.40332,11.418-1.00488,14.22584-1.002,39.8628v29.84765q0,17.2295,3.20507,24.03809,4.80762,10.418,19.832,10.416,6.20655,0,18.22852-2.7041,12.019-2.70409,17.82813-2.7041Q1542.479,1590.6875,1542.47949,1594.293Z" transform="translate(-334.13965 -1290.00488)"/><path d="M1787.86816,1544.61426q0,34.85449-21.0332,59.89453-22.23486,26.2456-56.48926,26.24219-12.82178,0-38.56152-.60157-25.7417-.60059-38.56055-.60058-9.41893,0-28.3457.80078-18.93018.80419-28.34473.80176-5.00976,0-5.00781-4.60742,0-22.03272,2.10352-66.20508,2.10351-44.16944,2.10351-66.2041,0-23.23536-2.10351-69.811-2.10352-46.574-2.10352-69.81055,0-4.404,5.00781-4.40722,17.82715,0,53.68555.20068,35.855.20142,53.88477.2002,42.06738,0,67.10644,15.62451,30.44678,19.03344,30.44824,59.09375,0,13.82226-8.01269,28.7456-8.01417,14.9253-19.43067,22.53614-5.8125,3.80712-5.80859,5.00781,0,1.2019,5.80859,4.40674a62.71061,62.71061,0,0,1,24.43946,24.73877A68.198,68.198,0,0,1,1787.86816,1544.61426Zm-56.28906-114.98194q0-28.2451-25.24023-38.06054-15.22559-5.80737-49.87891-5.80908-33.65332,0-33.65332,5.00781,0,6.61083-.60059,19.83154-.602,13.221-.60156,20.03174,0,4.61059.2002,14.22266.19774,9.61522.20117,14.42285,0,5.8125,45.27148,5.80908Q1731.5796,1465.08838,1731.5791,1429.63232Zm5.4082,112.979q0-24.438-21.834-33.05274-13.82226-5.606-43.06836-5.60839-50.48,0-50.48047,5.4082V1542.21q0,7.21143.40137,22.03516.39843,14.82714.40039,22.23535,0,2.00536,12.82031,3.00488,12.81738,1.00488,38.06055,1.002,31.64794,0,45.47168-8.21386Q1736.98438,1571.457,1736.9873,1542.61133Z" transform="translate(-334.13965 -1290.00488)"/><path d="M2003.21,1533.59668q0,41.86963-27.44336,71.51367-28.04736,30.64746-69.50976,30.64844-41.66748,0-69.71094-30.44824-27.44678-29.44629-27.44336-71.31348,0-41.86377,27.44336-71.3125,28.24512-30.04761,69.71094-30.04736,41.26317,0,69.30957,30.04736Q2003.21093,1491.93457,2003.21,1533.59668Zm-42.2666.40039q0-24.43653-15.02441-41.66553-15.624-18.22558-39.66211-18.22851-24.03809,0-39.86329,18.02832-15.0249,17.428-15.02441,41.86572,0,24.03809,15.22461,41.666,16.02393,18.62988,39.66309,18.62988,23.83593,0,39.66211-18.62988Q1960.94385,1558.03809,1960.94336,1533.99707Z" transform="translate(-334.13965 -1290.00488)"/><path d="M2207.93457,1627.14453q0,4.40918-4.00586,4.40723-6.61085,0-19.73144-.2002-13.12208-.20214-19.73145-.20019-3.60645,0-3.60547-5.80957,0-9.81153.60059-29.84668.60059-20.02881.60058-30.04785,0-8.00977-.20019-23.93848-.20069-15.92432-.2002-23.9375,0-22.83545-6.61035-32.25049-8.01416-11.21631-29.64648-11.21777-10.01953,0-27.84473,11.21777-18.83056,11.82129-18.83008,21.03272V1626.544q0,5.00976-3.80566,5.00781-6.41309,0-19.23047-.2002-12.82178-.20214-19.23047-.20019-4.207,0-4.207-4.60742,0-15.82179.501-47.47559.498-31.64794.501-47.67481,0-42.668-9.01465-78.7246a9.53032,9.53032,0,0,1-.60058-2.604q0-2.00023,2.60449-2.80469,1.39893-.197,22.93555-3.70605,21.53174-3.50244,22.53613-3.50537,1.20117,0,1.60254,3.20508a128.53621,128.53621,0,0,0,4.60742,25.03955q10.41357-8.21118,27.44336-20.43213,21.03369-12.81738,40.66406-12.82031,37.65821,0,51.48242,21.83447,10.21583,16.02833,10.21583,51.88232,0,6.21094-.30079,19.03028-.30028,12.8203-.2998,19.22949,0,13.42383.40039,40.06347Q2207.93261,1613.7251,2207.93457,1627.14453Z" transform="translate(-334.13965 -1290.00488)"/><path d="M2298.07715,1391.57178q0,24.6394-27.44336,24.63916-27.84522,0-27.84375-24.63916a22.76537,22.76537,0,0,1,8.61328-18.22852,30.35193,30.35193,0,0,1,38.56152.2002A22.74736,22.74736,0,0,1,2298.07715,1391.57178Zm-1.40235,54.28613q0,15.42774-1.90234,46.57422-1.90577,31.15064-1.90332,46.77392,0,14.62354.60059,43.76856.602,29.14746.60156,43.56934,0,4.207-3.60547,4.207h-39.0625q-4.207,0-4.206-8.21289,0-13.82227.70019-41.56641.7002-27.74268.70117-41.76563,0-15.62548-2.30371-46.87451-2.3042-31.2495-2.30273-46.874,0-3.4043,4.20605-3.40576a93.502,93.502,0,0,1,11.11817,1.00195,64.45381,64.45381,0,0,0,22.63574,0,93.774,93.774,0,0,1,11.31738-1.00195Q2296.67383,1442.05176,2296.6748,1445.85791Z" transform="translate(-334.13965 -1290.00488)"/><path d="M2447.915,1594.293q0,4.40918-.80176,12.01855-1.00488,9.41895-1.20215,12.21973a15.67611,15.67611,0,0,1-.60058,4.40723q-.80274,1.40331-3.80567,2.80468-16.42823,7.812-51.68261,7.8125-46.87354,0-46.874-42.46777,0-17.02442.80078-51.18164.79834-34.1499.80176-51.18018,0-8.21192-8.21289-8.814-7.41357,0-14.623-.2002-4.207-1.00049-4.207-16.42627a98.3141,98.3141,0,0,1,.80176-12.21923q.60059-4.80762,6.41016-5.80909,5.0039,0,9.81543-.20068,9.21093-.39917,9.21386-8.21289,0-8.00976-.5-24.439-.50244-16.42238-.501-24.63868,0-14.62061,5.6084-14.62353,1.80321,0,37.66015,6.21,4.60547.60132,4.60742,4.40723,0,8.8169-1.30273,26.44189-1.30518,17.6294-1.30176,26.44189,0,5.81178,5.4082,5.80909h48.07715q3.40284,0,3.40528,2.40381a66.775,66.775,0,0,1-.70118,7.7124,66.1831,66.1831,0,0,0-.70117,7.9126q0,3.0044.2002,9.21435.19775,6.21167.20019,9.21484,0,3.80714-5.6084,3.80567-8.01562,0-24.23925-1.10156-16.22462-1.09865-24.23828-1.10157-1.60548,0-2.40332,11.418-1.0049,14.22584-1.002,39.8628v29.84765q0,17.2295,3.20508,24.03809,4.80762,10.418,19.832,10.416,6.20655,0,18.22852-2.7041,12.019-2.70409,17.82812-2.7041Q2447.91455,1590.6875,2447.915,1594.293Z" transform="translate(-334.13965 -1290.00488)"/><path d="M2658.04785,1533.59668q0,41.86963-27.44336,71.51367-28.04736,30.64746-69.50976,30.64844-41.66748,0-69.71094-30.44824-27.44677-29.44629-27.44336-71.31348,0-41.86377,27.44336-71.3125,28.24512-30.04761,69.71094-30.04736,41.26319,0,69.30957,30.04736Q2658.04882,1491.93457,2658.04785,1533.59668Zm-42.2666.40039q0-24.43653-15.02441-41.66553-15.624-18.22558-39.66211-18.22851-24.03808,0-39.86328,18.02832-15.02491,17.428-15.02442,41.86572,0,24.03809,15.22461,41.666,16.02393,18.62988,39.66309,18.62988,23.83593,0,39.66211-18.62988Q2615.78174,1558.03809,2615.78125,1533.99707Z" transform="translate(-334.13965 -1290.00488)"/></svg>