<svg id="Capa_6" data-name="Capa 6" xmlns="http://www.w3.org/2000/svg" viewBox="0 0 2252.00006 1895.99994"><path d="M2490.06567,552.80328H498.06018A129.99731,129.99731,0,0,0,368.06293,682.8006V2318.80615a129.99717,129.99717,0,0,0,129.99725,129.99707H2490.06567A129.99727,129.99727,0,0,0,2620.063,2318.80615V682.8006A129.99741,129.99741,0,0,0,2490.06567,552.80328ZM1493.93433,1497.917c0,42.88953-22.18457,59.15772-54.72071,79.86267l-607.839,403.74744c-17.74755,11.8313-38.45263,25.14062-63.59381,25.14062-41.41009,0-76.90454-39.93066-76.90454-81.34082,1.47876-36.97314,19.22632-56.19873,48.80445-75.42431l529.45635-351.9856L742.63885,1148.891c-28.09936-19.2262-51.76257-39.93127-51.76257-78.38318,1.47876-41.41015,35.49445-79.862,78.38324-79.862,22.18378,0,42.8888,10.35254,60.63568,22.18378l609.31842,405.22607C1471.74976,1438.76074,1495.41382,1456.50757,1493.93433,1497.917Zm731.03784,506.07178-647.47425,3c-52.99279,0-77.55151-20.67712-77.55151-78.84546,0-58.16846,24.55872-78.85181,77.55151-78.85181l647.47425-3c52.99927,0,77.5581,20.68335,77.5581,78.85181C2302.53027,1983.31165,2277.97144,2003.98877,2224.97217,2003.98877Z" transform="translate(-368.06293 -552.80328)"/></svg>