<svg id="Capa_5" data-name="Capa 5" xmlns="http://www.w3.org/2000/svg" viewBox="0 0 2252 2108.05838"><path d="M2549.77677,1280.53228l-153.71186-74.55935A125.54461,125.54461,0,0,1,2335.657,1142.496a908.87541,908.87541,0,0,0-122.0482-204.47691,124.286,124.286,0,0,1-26.31695-86.06967l11.63646-161.33756a125.04831,125.04831,0,0,0-53.00972-111.342,1123.66919,1123.66919,0,0,0-228.026-123.47482,124.70991,124.70991,0,0,0-116.23491,12.65555l-155.224,105.18972a125.15467,125.15467,0,0,1-79.36039,21.14225Q1533.853,592.35714,1500,592.3414a917.43738,917.43738,0,0,0-112.43892,6.89485,124.44316,124.44316,0,0,1-85.01567-20.59281l-140.15112-94.97617a124.87384,124.87384,0,0,0-120.9494-10.67024A1126.02367,1126.02367,0,0,0,791.87477,626.19384a125.14,125.14,0,0,0-46.19309,106.22309l13.92847,193.116a125.37727,125.37727,0,0,1-20.36273,77.80685,907.91451,907.91451,0,0,0-60.42435,107.25218A125.58708,125.58708,0,0,1,620.39,1169.65768L453.93771,1250.393a124.97586,124.97586,0,0,0-69.21858,95.32444,1140.45774,1140.45774,0,0,0-.647,307.23089,124.83254,124.83254,0,0,0,69.26609,95.68416l164.55858,79.81971a125.45744,125.45744,0,0,1,58.696,59.63654,907.91467,907.91467,0,0,0,62.496,111.72522,125.16247,125.16247,0,0,1,20.25872,77.64208l-13.94017,193.30665a125.0937,125.0937,0,0,0,46.109,106.155,1125.95761,1125.95761,0,0,0,245.958,151.69848,124.79916,124.79916,0,0,0,121.302-10.511l138.69176-93.9864a124.23806,124.23806,0,0,1,85.47767-20.53947A917.14831,917.14831,0,0,0,1500,2411.05551q36.36937,0,72.03577-2.81711a124.82814,124.82814,0,0,1,79.79974,21.10679l153.5893,104.08386a124.62822,124.62822,0,0,0,116.60413,12.50669,1123.63251,1123.63251,0,0,0,224.26158-122.06784,124.99721,124.99721,0,0,0,52.91246-111.273l-11.64458-161.481a124.14642,124.14642,0,0,1,26.21676-85.94555A908.72649,908.72649,0,0,0,2337.58079,1856.372a125.48924,125.48924,0,0,1,60.65952-64.07312l151.99676-73.72429a124.60088,124.60088,0,0,0,69.67667-99.08655,1142.375,1142.375,0,0,0-.49238-240.18727A124.75411,124.75411,0,0,0,2549.77677,1280.53228Zm-589.66884,298.93419a471.69875,471.69875,0,1,1,6.4554-77.768A466.18316,466.18316,0,0,1,1960.10793,1579.46647Z" transform="translate(-374 -446.91688)"/></svg>