<svg id="Capa_7" data-name="Capa 7" xmlns="http://www.w3.org/2000/svg" viewBox="0 0 2252.00006 2198.15428"><path d="M1410.4668,465.9204l-996.005,996.00492a129.99509,129.99509,0,0,0-38.07468,91.92041v942.15919A129.99508,129.99508,0,0,0,506.38223,2626H995.44864a129.99509,129.99509,0,0,0,129.99509-129.99508V1947.99508A129.99508,129.99508,0,0,1,1255.43881,1818h493.89667a129.99509,129.99509,0,0,1,129.99509,129.99508v548.00984A129.99508,129.99508,0,0,0,2009.32565,2626h489.06647a129.99508,129.99508,0,0,0,129.99509-129.99508V1553.84573a129.99509,129.99509,0,0,0-38.07468-91.92041L1594.30761,465.9204A129.99508,129.99508,0,0,0,1410.4668,465.9204Z" transform="translate(-376.38715 -427.84572)"/></svg>